# xmcd CD database file
#
# Track frame offsets:
#	150
#	16287
#	35960
#	55817
#	75052
#	93580
#	116825
#	141007
#	160622
#	181855
#
# Disc length: 2721 seconds
#
# Revision: 0
# Processed by: cddbd v1.5.1PL0 Copyright (c) Steve Scherf et al.
# Submitted via: CDex 1.60beta1
#
DISCID=750a9f0a
DTITLE=すず - すず
DYEAR=2001
DGENRE=J-Pop
TTITLE0=あの頃の
TTITLE1=僕のところまで
TTITLE2=大人いろ
TTITLE3=電球
TTITLE4=あじさい
TTITLE5=傷は傷のままで
TTITLE6=理由
TTITLE7=きれい
TTITLE8=空は晴れてるのに
TTITLE9=明るい場所へ
EXTD=YEAR: 2001.4.25
EXTT0=
EXTT1=
EXTT2=
EXTT3=
EXTT4=
EXTT5=
EXTT6=
EXTT7=
EXTT8=
EXTT9=
PLAYORDER=
